<mxfile host="app.diagrams.net" modified="2024-04-09T19:03:28.772Z" agent="Mozilla/5.0 (Macintosh; Intel Mac OS X 10_15_7) AppleWebKit/537.36 (KHTML, like Gecko) Chrome/120.0.0.0 Safari/537.36" etag="jcdq14GGeA9fWDyhBye6" version="24.2.3" type="device">
  <diagram name="Page-1" id="J9_rM3LESXh7NZFxzHAQ">
    <mxGraphModel dx="1004" dy="2094" grid="1" gridSize="10" guides="1" tooltips="1" connect="1" arrows="1" fold="1" page="1" pageScale="1" pageWidth="850" pageHeight="1100" math="0" shadow="0">
      <root>
        <mxCell id="0" />
        <mxCell id="1" parent="0" />
        <mxCell id="t171KHaTc2CPlj2R7wT8-1" style="edgeStyle=orthogonalEdgeStyle;rounded=0;orthogonalLoop=1;jettySize=auto;html=1;entryX=0.5;entryY=0;entryDx=0;entryDy=0;" parent="1" source="LDpIClf5S1GTpXZ0fK_w-1" target="lGCmDoUiIEBklHLovCdl-7" edge="1">
          <mxGeometry relative="1" as="geometry" />
        </mxCell>
        <mxCell id="LDpIClf5S1GTpXZ0fK_w-1" value="&lt;font style=&quot;font-size: 13px;&quot;&gt;int&lt;span style=&quot;white-space: pre;&quot;&gt;&#x9;&lt;/span&gt;pipex(int *fd) recive el array de fd&lt;/font&gt;&lt;div style=&quot;font-size: 13px;&quot;&gt;&lt;font style=&quot;font-size: 13px;&quot;&gt;el cual crea dos procesos para gestionar las salida y entrada de los mismo&amp;nbsp;&lt;/font&gt;&lt;/div&gt;&lt;div style=&quot;font-size: 13px;&quot;&gt;&lt;font style=&quot;font-size: 13px;&quot;&gt;&lt;br&gt;&lt;/font&gt;&lt;/div&gt;&lt;div style=&quot;font-size: 13px;&quot;&gt;&lt;font style=&quot;font-size: 13px;&quot;&gt;al hacer el llamado de pipe creamos dos procesos&amp;nbsp;&lt;/font&gt;&lt;/div&gt;&lt;div style=&quot;font-size: 13px;&quot;&gt;&lt;font style=&quot;font-size: 13px;&quot;&gt;uno de ellos sera el hijo = 0&lt;/font&gt;&lt;/div&gt;&lt;div style=&quot;font-size: 13px;&quot;&gt;&lt;font style=&quot;font-size: 13px;&quot;&gt;el otro sera el resultado de pipe = 1&lt;/font&gt;&lt;/div&gt;&lt;div style=&quot;font-size: 13px;&quot;&gt;&lt;font style=&quot;font-size: 13px;&quot;&gt;donde un error es -1&lt;/font&gt;&lt;/div&gt;&lt;div style=&quot;font-size: 13px;&quot;&gt;&lt;font style=&quot;font-size: 13px;&quot;&gt;tanto como el padre y el hijo pueden gestionar los archivos de entrada y salida por la funcion DUP&lt;/font&gt;2&lt;/div&gt;&lt;div&gt;&lt;br&gt;&lt;/div&gt;" style="rounded=0;whiteSpace=wrap;html=1;align=center;" parent="1" vertex="1">
          <mxGeometry x="190" y="-540" width="360" height="290" as="geometry" />
        </mxCell>
        <mxCell id="LDpIClf5S1GTpXZ0fK_w-2" value="&lt;font style=&quot;font-size: 13px;&quot;&gt;proceso del hijo&amp;nbsp; pipe = 0&lt;/font&gt;&lt;div style=&quot;font-size: 13px;&quot;&gt;&lt;font style=&quot;font-size: 13px;&quot;&gt;cerramos el fd de entrada del pipe&lt;/font&gt;&lt;/div&gt;" style="rounded=0;whiteSpace=wrap;html=1;" parent="1" vertex="1">
          <mxGeometry x="270" y="840" width="340" height="230" as="geometry" />
        </mxCell>
        <mxCell id="FS2QE98wIBS6ScjMShJ3-2" style="edgeStyle=orthogonalEdgeStyle;rounded=0;orthogonalLoop=1;jettySize=auto;html=1;" edge="1" parent="1" source="lGCmDoUiIEBklHLovCdl-3" target="LDpIClf5S1GTpXZ0fK_w-2">
          <mxGeometry relative="1" as="geometry" />
        </mxCell>
        <mxCell id="FS2QE98wIBS6ScjMShJ3-3" style="edgeStyle=orthogonalEdgeStyle;rounded=0;orthogonalLoop=1;jettySize=auto;html=1;entryX=0.5;entryY=0;entryDx=0;entryDy=0;" edge="1" parent="1" source="lGCmDoUiIEBklHLovCdl-3" target="lGCmDoUiIEBklHLovCdl-5">
          <mxGeometry relative="1" as="geometry" />
        </mxCell>
        <mxCell id="lGCmDoUiIEBklHLovCdl-3" value="&lt;font style=&quot;font-size: 14px;&quot;&gt;int dup2(int fd, int (0 or 1))&lt;/font&gt;&lt;div style=&quot;font-size: 14px;&quot;&gt;&lt;font style=&quot;font-size: 14px;&quot;&gt;creamos una copia de cada fd descriptor&amp;nbsp;&lt;/font&gt;&lt;/div&gt;" style="rounded=0;whiteSpace=wrap;html=1;" parent="1" vertex="1">
          <mxGeometry x="500" y="520" width="220" height="170" as="geometry" />
        </mxCell>
        <mxCell id="lGCmDoUiIEBklHLovCdl-5" value="int proceso del padre = 1" style="rounded=0;whiteSpace=wrap;html=1;" parent="1" vertex="1">
          <mxGeometry x="760" y="880" width="180" height="170" as="geometry" />
        </mxCell>
        <mxCell id="t171KHaTc2CPlj2R7wT8-2" style="edgeStyle=orthogonalEdgeStyle;rounded=0;orthogonalLoop=1;jettySize=auto;html=1;entryX=0.5;entryY=0;entryDx=0;entryDy=0;" parent="1" source="lGCmDoUiIEBklHLovCdl-7" target="lGCmDoUiIEBklHLovCdl-9" edge="1">
          <mxGeometry relative="1" as="geometry" />
        </mxCell>
        <mxCell id="lGCmDoUiIEBklHLovCdl-7" value="FORK:&lt;div&gt;fork crea un proceso nuevo , exactamente igual al que llama a fork pero con&amp;nbsp; su propio espacio y su PID&lt;/div&gt;&lt;div&gt;&lt;br&gt;&lt;/div&gt;&lt;div&gt;tiene dos returns, el proceso padre y el proceso hijo&lt;/div&gt;&lt;div&gt;donde hijo e = 0&lt;/div&gt;" style="rounded=0;whiteSpace=wrap;html=1;" parent="1" vertex="1">
          <mxGeometry x="220" y="-190" width="310" height="230" as="geometry" />
        </mxCell>
        <mxCell id="t171KHaTc2CPlj2R7wT8-4" style="edgeStyle=orthogonalEdgeStyle;rounded=0;orthogonalLoop=1;jettySize=auto;html=1;exitX=0;exitY=0.5;exitDx=0;exitDy=0;entryX=0.75;entryY=0;entryDx=0;entryDy=0;" parent="1" source="lGCmDoUiIEBklHLovCdl-9" target="lGCmDoUiIEBklHLovCdl-12" edge="1">
          <mxGeometry relative="1" as="geometry" />
        </mxCell>
        <mxCell id="lGCmDoUiIEBklHLovCdl-9" value="EXECVE&lt;div&gt;filename , command, ruta&lt;/div&gt;&lt;div&gt;devolvemos -1 si ocurre un error, exeve se utiliza para reemplazar el proceso actual con un nuevo proceso&lt;/div&gt;&lt;div&gt;execve(&quot;path\bin\ls&quot;, &quot;-l&quot; &quot;enviroment&quot;)&lt;/div&gt;" style="rounded=0;whiteSpace=wrap;html=1;" parent="1" vertex="1">
          <mxGeometry x="740" y="-10" width="340" height="265" as="geometry" />
        </mxCell>
        <mxCell id="FS2QE98wIBS6ScjMShJ3-1" style="edgeStyle=orthogonalEdgeStyle;rounded=0;orthogonalLoop=1;jettySize=auto;html=1;exitX=0.5;exitY=1;exitDx=0;exitDy=0;entryX=0.5;entryY=0;entryDx=0;entryDy=0;" edge="1" parent="1" source="lGCmDoUiIEBklHLovCdl-12" target="lGCmDoUiIEBklHLovCdl-3">
          <mxGeometry relative="1" as="geometry" />
        </mxCell>
        <mxCell id="lGCmDoUiIEBklHLovCdl-12" value="" style="shape=image;verticalLabelPosition=bottom;labelBackgroundColor=default;verticalAlign=top;aspect=fixed;imageAspect=0;image=https://assets-global.website-files.com/5d0dc87aac109e1ffdbe379c/613703a693062c71baec8698_whats-the-difference-between-fork-and-exec-function-in-c.jpg;" parent="1" vertex="1">
          <mxGeometry x="190" y="320" width="530" height="162.6" as="geometry" />
        </mxCell>
        <mxCell id="t171KHaTc2CPlj2R7wT8-3" style="edgeStyle=orthogonalEdgeStyle;rounded=0;orthogonalLoop=1;jettySize=auto;html=1;entryX=0.377;entryY=0;entryDx=0;entryDy=0;entryPerimeter=0;" parent="1" source="lGCmDoUiIEBklHLovCdl-7" target="lGCmDoUiIEBklHLovCdl-12" edge="1">
          <mxGeometry relative="1" as="geometry" />
        </mxCell>
      </root>
    </mxGraphModel>
  </diagram>
</mxfile>
